<svg xmlns="http://www.w3.org/2000/svg" xmlns:xlink="http://www.w3.org/1999/xlink" version="1.2" viewBox="0 0 489.14 195.698" height="260.931" width="652.187"><defs><symbol id="a" overflow="visible"><path d="M5.36-3.828c0-.985-.063-1.953-.5-2.86-.485-1-1.344-1.265-1.938-1.265-.688 0-1.531.344-1.985 1.344-.328.75-.453 1.5-.453 2.78 0 1.157.094 2.032.516 2.892A2.132 2.132 0 002.922.25c1.031 0 1.625-.625 1.984-1.313.422-.89.453-2.062.453-2.765zM2.921.016c-.39 0-1.172-.22-1.39-1.516-.126-.719-.126-1.625-.126-2.469 0-.984 0-1.86.188-2.562.203-.813.812-1.172 1.328-1.172.453 0 1.14.266 1.375 1.297.156.687.156 1.625.156 2.437 0 .797 0 1.703-.14 2.438C4.093-.22 3.328.016 2.921.016zm0 0"/></symbol><symbol id="c" overflow="visible"><path d="M5.266-2.016H5c-.047.204-.14.875-.25 1.063-.094.11-.766.11-1.125.11H1.406c.328-.282 1.063-1.048 1.36-1.329 1.828-1.672 2.5-2.297 2.5-3.484 0-1.375-1.094-2.297-2.485-2.297-1.375 0-2.203 1.187-2.203 2.219 0 .609.531.609.563.609.265 0 .562-.188.562-.563 0-.343-.219-.562-.562-.562-.094 0-.125 0-.157.016.22-.813.875-1.375 1.641-1.375 1.016 0 1.64.859 1.64 1.953 0 1.015-.577 1.906-1.265 2.672L.578-.281V0h4.375zm0 0"/></symbol><symbol id="d" overflow="visible"><path d="M4.313-7.781c0-.235 0-.282-.172-.282-.094 0-.125 0-.22.141L.329-2.344V-2h3.14v1.094c0 .437-.03.562-.905.562h-.235V0c.281-.031 1.219-.031 1.563-.031.328 0 1.28 0 1.562.031v-.344H5.22c-.875 0-.907-.125-.907-.562V-2h1.204v-.344H4.312zm-.782.937v4.5H.625zm0 0"/></symbol><symbol id="e" overflow="visible"><path d="M1.469-4.156c0-3.032 1.468-3.5 2.11-3.5.437 0 .874.125 1.093.484-.14 0-.594 0-.594.484 0 .266.172.5.484.5.297 0 .5-.187.5-.53 0-.626-.453-1.235-1.484-1.235-1.515 0-3.094 1.547-3.094 4.172C.484-.484 1.922.25 2.938.25 4.25.25 5.358-.89 5.358-2.438c0-1.593-1.109-2.656-2.312-2.656-1.063 0-1.453.922-1.578 1.25zM2.937-.078c-.75 0-1.109-.656-1.218-.906-.11-.313-.219-.907-.219-1.735 0-.953.422-2.14 1.5-2.14.656 0 1 .453 1.188.859.187.438.187 1.031.187 1.547 0 .61 0 1.156-.234 1.61-.297.562-.72.765-1.204.765zm0 0"/></symbol><symbol id="f" overflow="visible"><path d="M3.563-4.313c.593-.328 1.468-.875 1.468-1.875 0-1.046-1-1.765-2.11-1.765-1.171 0-2.108.875-2.108 1.969 0 .406.125.812.453 1.218.14.157.14.157.984.75C1.094-3.484.484-2.672.484-1.812.484-.532 1.704.25 2.922.25c1.328 0 2.437-.984 2.437-2.234 0-1.22-.859-1.75-1.796-2.329zM1.937-5.39c-.156-.109-.64-.421-.64-1 0-.78.812-1.265 1.625-1.265.86 0 1.625.61 1.625 1.468 0 .735-.531 1.329-1.219 1.704zM2.5-3.844l1.438.938c.312.203.874.578.874 1.297 0 .921-.921 1.53-1.89 1.53-1.016 0-1.875-.734-1.875-1.734 0-.921.672-1.671 1.453-2.03zm0 0"/></symbol><symbol id="g" overflow="visible"><path d="M3.438-7.656c0-.282 0-.297-.235-.297-.281.328-.89.766-2.11.766v.343c.266 0 .86 0 1.532-.297v6.22c0 .437-.047.577-1.094.577h-.375V0c.328-.031 1.485-.031 1.875-.031.406 0 1.547 0 1.875.031v-.344h-.375c-1.047 0-1.093-.14-1.093-.578zm0 0"/></symbol><symbol id="h" overflow="visible"><path d="M1.531-6.844a3.88 3.88 0 001.063.172c1.344 0 2.219-.984 2.219-1.156 0-.047-.032-.11-.11-.11-.016 0-.047 0-.156.047A3.987 3.987 0 013-7.562c-.781 0-1.344-.25-1.578-.344-.078-.032-.11-.032-.125-.032-.094 0-.094.079-.094.266v3.547c0 .219 0 .281.14.281.063 0 .079 0 .204-.156.328-.484.89-.766 1.484-.766.64 0 .953.579 1.047.782.203.468.219 1.062.219 1.515 0 .453 0 1.125-.344 1.672-.265.422-.719.719-1.25.719A1.838 1.838 0 01.922-1.484a.396.396 0 00.187.03c.204 0 .532-.109.532-.515 0-.343-.235-.531-.532-.531-.218 0-.53.11-.53.578C.578-.906 1.405.25 2.718.25c1.36 0 2.547-1.14 2.547-2.656 0-1.422-.97-2.61-2.22-2.61a2.08 2.08 0 00-1.515.641zm0 0"/></symbol><symbol id="b" overflow="visible"><path d="M2.203-.578a.586.586 0 00-.578-.578.576.576 0 00-.578.578c0 .344.281.578.562.578a.59.59 0 00.594-.578zm0 0"/></symbol><symbol id="i" overflow="visible"><path d="M6.031-7.984v-.422H.97v.422zm0 0"/></symbol><symbol id="j" overflow="visible"><path d="M5.266-8.688c.125-.546.171-.687 1.437-.687.375 0 .484 0 .484-.281 0-.14-.156-.14-.218-.14-.282 0-.61.03-.907.03H4.141c-.266 0-.579-.03-.86-.03-.11 0-.265 0-.265.265 0 .156.125.156.343.156.875 0 .875.11.875.266 0 .03 0 .109-.062.328L2.234-1.062c-.125.5-.156.64-1.156.64-.281 0-.422 0-.422.266C.656 0 .75 0 1.031 0h6.422c.328 0 .328-.016.438-.266L9-3.328c.016-.078.047-.156.047-.203a.14.14 0 00-.14-.14c-.016 0-.079 0-.11.062-.031.015-.031.03-.14.312-.47 1.266-1.11 2.875-3.532 2.875H3.75c-.203 0-.234 0-.328-.016-.156 0-.172-.03-.172-.156 0-.094.031-.187.063-.312zm0 0"/></symbol><symbol id="k" overflow="visible"><path d="M-8.344-8.125c-.86 0-1.765.734-1.765 2.047 0 1.844 2.265 3.016 3.75 3.39l9 2.266c.109.031.14-.047.14-.125 0-.094-.015-.172-.078-.187l-4.015-1C-.516-1.875.14-2.672.14-3.516.14-5.562-1.47-7.5-3.594-7.5c-.547 0-1.094.125-1.562.422-.266.172-.469.39-.64.625-.548-1.031-1.423-1.672-2.548-1.672zm2.531 2.5c.094.234.125.469.125.734 0 .204 0 .391-.078.641-.093-.14-.125-.36-.125-.656 0-.25.032-.516.079-.719zm-2.671-1.75c.796 0 1.937.39 2.468 1.328-.093.266-.171.64-.171.953 0 .297-.016 1.157.437 1.157.39 0 .344-.782.344-1.032 0-.36-.094-.703-.188-1.047.375-.453.86-.656 1.578-.656.829 0 1.5.234 2.125.5 1.063.484 1.75 1.594 1.75 2.594C-.14-2.531-.969-2-1.953-2c-.125 0-.313 0-.531-.047l-3.766-.937c-1.89-.47-3.578-1.672-3.578-3.063 0-1.031.719-1.328 1.344-1.328zm0 0"/></symbol><symbol id="p" overflow="visible"><path d="M-.875-4.938C-.015-5.25.141-6.14.141-6.688c0-1.093-.938-1.734-1.938-2.14-.828-.328-2.719-.86-3.562-.86-.875 0-.97.454-.97.579 0 .343.345.656.641.656a.399.399 0 00.329-.172c.125-.125.515-.5 1.25-.5.5 0 1.843.406 2.515.703.875.406 1.453.938 1.453 1.688 0 .796-.609 1.046-1.265 1.046-.422 0-.922-.125-1.157-.171l-2.421-.61c-.282-.078-.782-.203-.844-.203-.203 0-.36.172-.36.39 0 .423.36.516.704.595.562.156 2.984.75 3.296.812.25.063.407.063.72.063.343 0 .89.453.921.468.156.157.406.39.406.828 0 1.141-1.078 1.141-1.328 1.141-.453 0-1.078-.11-2.797-.75-.437-.172-.625-.25-.906-.25-.61 0-1.156.438-1.156 1.14C-6.328-.921-4.25-.39-4.125-.39-4.078-.39-4-.437-4-.547c0-.125-.063-.14-.266-.203-1.25-.36-1.765-.906-1.765-1.438 0-.156 0-.374.468-.374.063 0 .375 0 1 .234 1.797.672 2.375.828 2.922.828C-.125-1.5.141-2.734.141-3.469c0-.25 0-.89-1.016-1.469zm0 0"/></symbol><symbol id="o" overflow="visible"><path d="M7.875-2.75c.203 0 .422 0 .422-.234 0-.25-.219-.25-.422-.25H1.406c-.203 0-.422 0-.422.25 0 .234.22.234.422.234zm0 0"/></symbol><symbol id="q" overflow="visible"><path d="M-3.984-2.047v-.937c0-.204 0-.313-.204-.313-.109 0-.109.11-.109.281v.875c-1.422-.359-1.61-.406-1.672-.406-.172 0-.265.125-.265.297 0 .031 0 .313.359.39l1.578.391v.938c0 .203 0 .297.188.297.125 0 .125-.078.125-.282v-.875c2.828.72 3 .766 3.171.766.547 0 .922-.375.922-.922 0-1.016-1.453-1.578-1.53-1.578-.11 0-.11.078-.11.11 0 .093.031.109.14.156 1.047.421 1.282.953 1.282 1.296 0 .204-.125.313-.454.313-.25 0-.312-.031-.484-.063zm0 0"/></symbol><clipPath id="l"><path d="M294 25h195.14v108H294zm0 0"/></clipPath><clipPath id="m"><path d="M294 25h195.14v108H294zm0 0"/></clipPath><clipPath id="n"><path d="M294 0h195.14v163H294zm0 0"/></clipPath></defs><path d="M60.758 162.184V.789M94.84 162.184V.789m34.082 161.395V.789m34.082 161.395V.789m34.082 161.395V.789m34.086 161.395V.789M44.566 148.734H238.84m-194.274-35.39H238.84M44.566 77.954H238.84M44.566 42.562H238.84M44.566 7.172H238.84" fill="none" stroke="#bfbfbf" stroke-width=".399" stroke-miterlimit="10"/><path d="M60.758 162.184v-4.25m34.082 4.25v-4.25m34.082 4.25v-4.25m34.082 4.25v-4.25m34.082 4.25v-4.25m34.086 4.25v-4.25M60.758.789v4.25M94.84.79v4.25M128.922.79v4.25M163.004.79v4.25M197.086.79v4.25M231.172.79v4.25M44.566 148.734h4.25m-4.25-35.39h4.25m-4.25-35.39h4.25m-4.25-35.391h4.25m-4.25-35.391h4.25M238.84 148.734h-4.25m4.25-35.39h-4.25m4.25-35.39h-4.25m4.25-35.391h-4.25m4.25-35.391h-4.25" fill="none" stroke="#7f7f7f" stroke-width=".199" stroke-miterlimit="10"/><path d="M44.566 162.184V.789H238.84v161.395zm0 0" fill="none" stroke="#000" stroke-width=".399" stroke-miterlimit="10"/><use height="100%" width="100%" y="173.409" x="57.83" xlink:href="#a"/><use height="100%" width="100%" y="173.409" x="87.36" xlink:href="#a"/><use height="100%" width="100%" y="173.409" x="93.213" xlink:href="#b"/><use height="100%" width="100%" y="173.409" x="96.464" xlink:href="#c"/><use height="100%" width="100%" y="173.409" x="121.442" xlink:href="#a"/><use height="100%" width="100%" y="173.409" x="127.295" xlink:href="#b"/><use height="100%" width="100%" y="173.409" x="130.547" xlink:href="#d"/><use height="100%" width="100%" y="173.409" x="155.524" xlink:href="#a"/><use height="100%" width="100%" y="173.409" x="161.377" xlink:href="#b"/><use height="100%" width="100%" y="173.409" x="164.629" xlink:href="#e"/><use height="100%" width="100%" y="173.409" x="189.607" xlink:href="#a"/><use height="100%" width="100%" y="173.409" x="195.46" xlink:href="#b"/><use height="100%" width="100%" y="173.409" x="198.711" xlink:href="#f"/><use height="100%" width="100%" y="173.409" x="228.241" xlink:href="#g"/><use height="100%" width="100%" y="152.586" x="35.193" xlink:href="#a"/><use height="100%" width="100%" y="117.196" x="35.193" xlink:href="#h"/><use height="100%" width="100%" y="81.805" x="29.34" xlink:href="#g"/><use height="100%" width="100%" y="81.805" x="35.193" xlink:href="#a"/><use height="100%" width="100%" y="46.415" x="29.34" xlink:href="#g"/><use height="100%" width="100%" y="46.415" x="35.193" xlink:href="#h"/><use height="100%" width="100%" y="11.024" x="29.34" xlink:href="#c"/><use height="100%" width="100%" y="11.024" x="35.193" xlink:href="#a"/><path d="M60.758 148.734l1.633-.07 1.636-.07 1.633-.07 1.637-.07 1.637-.075 1.632-.078 3.274-.156 1.633-.079 1.636-.082 1.637-.086 1.633-.085 1.637-.086 1.632-.09 3.274-.188 1.633-.094 1.636-.097 1.637-.102 1.633-.101 1.637-.106 1.636-.11 1.633-.109 1.637-.113 1.633-.117 1.636-.117 1.637-.125 1.633-.125 1.637-.13 1.636-.132 1.633-.133 1.637-.14 1.633-.145 3.273-.297 1.633-.156 3.273-.328 1.633-.172 1.637-.176 1.637-.18 1.632-.187 1.637-.195 1.633-.2 1.637-.207 1.636-.214 1.633-.223 1.637-.227 1.637-.238 1.633-.246 1.636-.258 1.637-.265 1.633-.274 1.637-.289 1.632-.297 1.637-.312 1.637-.325 1.633-.335 1.636-.356 1.637-.367 1.633-.387 1.637-.406 1.636-.422 1.633-.445 1.637-.469 1.633-.492 1.636-.52 1.637-.547 1.633-.578 1.637-.613 1.636-.648 1.633-.692 1.637-.73 1.637-.785 1.632-.836 1.637-.895 1.633-.96 1.637-1.036 1.636-1.113 1.633-1.211 1.637-1.313 1.637-1.43 1.632-1.566 1.637-1.719 1.637-1.902 1.633-2.11 1.636-2.35 1.633-2.645 1.637-2.993 1.637-3.414 1.632-3.925 1.637-4.575 1.637-5.39 1.633-6.442 1.636-7.843 1.633-9.758 1.637-12.461 1.637-16.473 1.632-22.797" fill="none" stroke="#00f" stroke-width=".797" stroke-miterlimit="10"/><use height="100%" width="100%" y="188.751" x="138.58" xlink:href="#i"/><use height="100%" width="100%" y="192.377" x="136.923" xlink:href="#j"/><use height="100%" width="100%" y="85.85" x="13.283" xlink:href="#k"/><path d="M309.215 162.184V.789m34.426 161.395V.789m34.43 161.395V.789M412.5 162.184V.789m34.43 161.395V.789m34.43 161.395V.789" fill="none" stroke="#bfbfbf" stroke-width=".399" stroke-miterlimit="10"/><g clip-path="url(#l)"><path d="M294.676 131.98H488.94M294.676 96.5H488.94M294.676 61.02H488.94M294.676 25.535H488.94" fill="none" stroke="#bfbfbf" stroke-width=".399" stroke-miterlimit="10"/></g><path d="M309.215 162.184v-4.25m34.426 4.25v-4.25m34.43 4.25v-4.25m34.429 4.25v-4.25m34.43 4.25v-4.25m34.43 4.25v-4.25M309.214.789v4.254M343.64.789v4.254M378.07.789v4.254M412.5.789v4.254M446.93.789v4.254M481.36.789v4.254" fill="none" stroke="#7f7f7f" stroke-width=".199" stroke-miterlimit="10"/><g clip-path="url(#m)"><path d="M294.676 131.98h4.25m-4.25-35.48h4.25m-4.25-35.48h4.25m-4.25-35.485h4.25M488.94 131.98h-4.25m4.25-35.48h-4.25m4.25-35.48h-4.25m4.25-35.485h-4.25" fill="none" stroke="#7f7f7f" stroke-width=".199" stroke-miterlimit="10"/></g><g clip-path="url(#n)"><path d="M294.676 162.184V.789H488.94v161.395zm0 0" fill="none" stroke="#000" stroke-width=".399" stroke-miterlimit="10"/></g><use height="100%" width="100%" y="173.409" x="306.286" xlink:href="#a"/><use height="100%" width="100%" y="173.409" x="336.163" xlink:href="#a"/><use height="100%" width="100%" y="173.409" x="342.016" xlink:href="#b"/><use height="100%" width="100%" y="173.409" x="345.268" xlink:href="#c"/><use height="100%" width="100%" y="173.409" x="370.592" xlink:href="#a"/><use height="100%" width="100%" y="173.409" x="376.445" xlink:href="#b"/><use height="100%" width="100%" y="173.409" x="379.697" xlink:href="#d"/><use height="100%" width="100%" y="173.409" x="405.021" xlink:href="#a"/><use height="100%" width="100%" y="173.409" x="410.874" xlink:href="#b"/><use height="100%" width="100%" y="173.409" x="414.126" xlink:href="#e"/><use height="100%" width="100%" y="173.409" x="439.45" xlink:href="#a"/><use height="100%" width="100%" y="173.409" x="445.303" xlink:href="#b"/><use height="100%" width="100%" y="173.409" x="448.555" xlink:href="#f"/><use height="100%" width="100%" y="173.409" x="478.431" xlink:href="#g"/><use height="100%" width="100%" y="135.335" x="276.004" xlink:href="#o"/><use height="100%" width="100%" y="135.335" x="285.302" xlink:href="#c"/><use height="100%" width="100%" y="100.352" x="285.302" xlink:href="#a"/><use height="100%" width="100%" y="64.871" x="285.302" xlink:href="#c"/><use height="100%" width="100%" y="29.39" x="285.302" xlink:href="#d"/><path d="M310.863 14.238l1.653 12.469 1.652 7.371 1.652 5.277 1.653 4.137 1.652 3.414 1.652 2.918 1.653 2.551 1.652 2.277 1.648 2.055 1.653 1.879 1.652 1.738 1.652 1.614 1.653 1.507 1.652 1.422 1.653 1.344 1.652 1.277 1.652 1.223 1.653 1.164 1.648 1.121 1.652 1.078 1.653 1.04 1.652 1.003 1.652.977 1.653.945 1.652.922 1.652.898 1.653.875 1.648.856 1.653.84 1.652.824 1.652.805 1.653.796 1.652.778 1.652.77 1.653.757 1.652.75 1.648.738 1.653.73 1.652.724 1.652.714 1.653.711 1.652.707 1.652.7 1.653.695 1.652.691 1.649.692 1.652.683 1.652.688 1.653.683 3.304 1.36 1.653.683 1.652.68 3.305 1.367 1.648.688 1.652.687 1.653.692 1.652.695 1.652.7 1.653.702 1.652.707 1.653.715 1.652.723 1.648.73 1.653.735 1.652.75 1.652.754 1.653.765 1.652.781 1.652.79 1.653.804 1.652.817 1.648.836 1.653.855 1.652.871 1.653.895 1.652.914 1.652.941 1.653.969 1.652 1 1.652 1.027 1.653 1.074 1.648 1.11 1.652 1.156 1.653 1.207 1.652 1.266 1.652 1.328 1.653 1.406 1.652 1.488 1.652 1.59 1.653 1.711 1.648 1.848 1.653 2.015 1.652 2.223 1.652 2.488 1.653 2.832 1.652 3.293" fill="none" stroke="#00f" stroke-width=".797" stroke-miterlimit="10"/><use height="100%" width="100%" y="188.751" x="388.686" xlink:href="#i"/><g><use height="100%" width="100%" y="192.377" x="387.029" xlink:href="#j"/></g><g><use height="100%" width="100%" y="88.556" x="261.818" xlink:href="#p"/></g><g><use height="100%" width="100%" y="78.514" x="263.97" xlink:href="#q"/></g></svg>