<svg xmlns="http://www.w3.org/2000/svg" xmlns:xlink="http://www.w3.org/1999/xlink" version="1.2" viewBox="0 0 471.477 200.077" height="266.769" width="628.636"><defs><symbol id="a" overflow="visible"><path d="M5.36-3.828c0-.985-.063-1.953-.5-2.86-.485-1-1.344-1.265-1.938-1.265-.688 0-1.531.344-1.985 1.344-.328.75-.453 1.5-.453 2.78 0 1.157.094 2.032.516 2.892A2.132 2.132 0 002.922.25c1.031 0 1.625-.625 1.984-1.313.422-.89.453-2.062.453-2.765zM2.921.016c-.39 0-1.172-.22-1.39-1.516-.126-.719-.126-1.625-.126-2.469 0-.984 0-1.86.188-2.562.203-.813.812-1.172 1.328-1.172.453 0 1.14.266 1.375 1.297.156.687.156 1.625.156 2.437 0 .797 0 1.703-.14 2.438C4.093-.22 3.328.016 2.921.016zm0 0"/></symbol><symbol id="c" overflow="visible"><path d="M3.438-7.656c0-.282 0-.297-.235-.297-.281.328-.89.766-2.11.766v.343c.266 0 .86 0 1.532-.297v6.22c0 .437-.047.577-1.094.577h-.375V0c.328-.031 1.485-.031 1.875-.031.406 0 1.547 0 1.875.031v-.344h-.375c-1.047 0-1.093-.14-1.093-.578zm0 0"/></symbol><symbol id="d" overflow="visible"><path d="M5.266-2.016H5c-.047.204-.14.875-.25 1.063-.094.11-.766.11-1.125.11H1.406c.328-.282 1.063-1.048 1.36-1.329 1.828-1.672 2.5-2.297 2.5-3.484 0-1.375-1.094-2.297-2.485-2.297-1.375 0-2.203 1.187-2.203 2.219 0 .609.531.609.563.609.265 0 .562-.188.562-.563 0-.343-.219-.562-.562-.562-.094 0-.125 0-.157.016.22-.813.875-1.375 1.641-1.375 1.016 0 1.64.859 1.64 1.953 0 1.015-.577 1.906-1.265 2.672L.578-.281V0h4.375zm0 0"/></symbol><symbol id="e" overflow="visible"><path d="M2.203-4.297c-.203.016-.25.031-.25.14 0 .11.063.11.266.11h.547c1.03 0 1.484.844 1.484 1.984 0 1.579-.813 1.985-1.406 1.985-.578 0-1.547-.266-1.906-1.063.39.063.734-.156.734-.578a.571.571 0 00-.578-.593c-.297 0-.61.171-.61.624C.484-.625 1.547.25 2.875.25c1.422 0 2.484-1.094 2.484-2.297C5.36-3.14 4.47-4 3.33-4.203 4.358-4.5 5.03-5.375 5.03-6.313c0-.937-.984-1.64-2.14-1.64-1.188 0-2.079.734-2.079 1.61 0 .468.375.577.547.577.25 0 .547-.187.547-.546 0-.375-.297-.547-.562-.547-.063 0-.094 0-.125.015.453-.812 1.578-.812 1.64-.812.391 0 1.172.172 1.172 1.343 0 .235-.031.891-.39 1.407-.36.531-.766.562-1.079.578zm0 0"/></symbol><symbol id="f" overflow="visible"><path d="M4.313-7.781c0-.235 0-.282-.172-.282-.094 0-.125 0-.22.141L.329-2.344V-2h3.14v1.094c0 .437-.03.562-.905.562h-.235V0c.281-.031 1.219-.031 1.563-.031.328 0 1.28 0 1.562.031v-.344H5.22c-.875 0-.907-.125-.907-.562V-2h1.204v-.344H4.312zm-.782.937v4.5H.625zm0 0"/></symbol><symbol id="g" overflow="visible"><path d="M1.531-6.844a3.88 3.88 0 001.063.172c1.344 0 2.219-.984 2.219-1.156 0-.047-.032-.11-.11-.11-.016 0-.047 0-.156.047A3.987 3.987 0 013-7.562c-.781 0-1.344-.25-1.578-.344-.078-.032-.11-.032-.125-.032-.094 0-.094.079-.094.266v3.547c0 .219 0 .281.14.281.063 0 .079 0 .204-.156.328-.484.89-.766 1.484-.766.64 0 .953.579 1.047.782.203.468.219 1.062.219 1.515 0 .453 0 1.125-.344 1.672-.265.422-.719.719-1.25.719A1.838 1.838 0 01.922-1.484a.396.396 0 00.187.03c.204 0 .532-.109.532-.515 0-.343-.235-.531-.532-.531-.218 0-.53.11-.53.578C.578-.906 1.405.25 2.718.25c1.36 0 2.547-1.14 2.547-2.656 0-1.422-.97-2.61-2.22-2.61a2.08 2.08 0 00-1.515.641zm0 0"/></symbol><symbol id="h" overflow="visible"><path d="M1.469-4.156c0-3.032 1.468-3.5 2.11-3.5.437 0 .874.125 1.093.484-.14 0-.594 0-.594.484 0 .266.172.5.484.5.297 0 .5-.187.5-.53 0-.626-.453-1.235-1.484-1.235-1.515 0-3.094 1.547-3.094 4.172C.484-.484 1.922.25 2.938.25 4.25.25 5.358-.89 5.358-2.438c0-1.593-1.109-2.656-2.312-2.656-1.063 0-1.453.922-1.578 1.25zM2.937-.078c-.75 0-1.109-.656-1.218-.906-.11-.313-.219-.907-.219-1.735 0-.953.422-2.14 1.5-2.14.656 0 1 .453 1.188.859.187.438.187 1.031.187 1.547 0 .61 0 1.156-.234 1.61-.297.562-.72.765-1.204.765zm0 0"/></symbol><symbol id="i" overflow="visible"><path d="M3.563-4.313c.593-.328 1.468-.875 1.468-1.875 0-1.046-1-1.765-2.11-1.765-1.171 0-2.108.875-2.108 1.969 0 .406.125.812.453 1.218.14.157.14.157.984.75C1.094-3.484.484-2.672.484-1.812.484-.532 1.704.25 2.922.25c1.328 0 2.437-.984 2.437-2.234 0-1.22-.859-1.75-1.796-2.329zM1.937-5.39c-.156-.109-.64-.421-.64-1 0-.78.812-1.265 1.625-1.265.86 0 1.625.61 1.625 1.468 0 .735-.531 1.329-1.219 1.704zM2.5-3.844l1.438.938c.312.203.874.578.874 1.297 0 .921-.921 1.53-1.89 1.53-1.016 0-1.875-.734-1.875-1.734 0-.921.672-1.671 1.453-2.03zm0 0"/></symbol><symbol id="b" overflow="visible"><path d="M2.203-.578a.586.586 0 00-.578-.578.576.576 0 00-.578.578c0 .344.281.578.562.578a.59.59 0 00.594-.578zm0 0"/></symbol><symbol id="j" overflow="visible"><path d="M6.031-7.984v-.422H.97v.422zm0 0"/></symbol><symbol id="k" overflow="visible"><path d="M5.266-8.688c.125-.546.171-.687 1.437-.687.375 0 .484 0 .484-.281 0-.14-.156-.14-.218-.14-.282 0-.61.03-.907.03H4.141c-.266 0-.579-.03-.86-.03-.11 0-.265 0-.265.265 0 .156.125.156.343.156.875 0 .875.11.875.266 0 .03 0 .109-.062.328L2.234-1.062c-.125.5-.156.64-1.156.64-.281 0-.422 0-.422.266C.656 0 .75 0 1.031 0h6.422c.328 0 .328-.016.438-.266L9-3.328c.016-.078.047-.156.047-.203a.14.14 0 00-.14-.14c-.016 0-.079 0-.11.062-.031.015-.031.03-.14.312-.47 1.266-1.11 2.875-3.532 2.875H3.75c-.203 0-.234 0-.328-.016-.156 0-.172-.03-.172-.156 0-.094.031-.187.063-.312zm0 0"/></symbol><symbol id="l" overflow="visible"><path d="M-8.344-8.125c-.86 0-1.765.734-1.765 2.047 0 1.844 2.265 3.016 3.75 3.39l9 2.266c.109.031.14-.047.14-.125 0-.094-.015-.172-.078-.187l-4.015-1C-.516-1.875.14-2.672.14-3.516.14-5.562-1.47-7.5-3.594-7.5c-.547 0-1.094.125-1.562.422-.266.172-.469.39-.64.625-.548-1.031-1.423-1.672-2.548-1.672zm2.531 2.5c.094.234.125.469.125.734 0 .204 0 .391-.078.641-.093-.14-.125-.36-.125-.656 0-.25.032-.516.079-.719zm-2.671-1.75c.796 0 1.937.39 2.468 1.328-.093.266-.171.64-.171.953 0 .297-.016 1.157.437 1.157.39 0 .344-.782.344-1.032 0-.36-.094-.703-.188-1.047.375-.453.86-.656 1.578-.656.829 0 1.5.234 2.125.5 1.063.484 1.75 1.594 1.75 2.594C-.14-2.531-.969-2-1.953-2c-.125 0-.313 0-.531-.047l-3.766-.937c-1.89-.47-3.578-1.672-3.578-3.063 0-1.031.719-1.328 1.344-1.328zm0 0"/></symbol><symbol id="p" overflow="visible"><path d="M-.875-4.938C-.015-5.25.141-6.14.141-6.688c0-1.093-.938-1.734-1.938-2.14-.828-.328-2.719-.86-3.562-.86-.875 0-.97.454-.97.579 0 .343.345.656.641.656a.399.399 0 00.329-.172c.125-.125.515-.5 1.25-.5.5 0 1.843.406 2.515.703.875.406 1.453.938 1.453 1.688 0 .796-.609 1.046-1.265 1.046-.422 0-.922-.125-1.157-.171l-2.421-.61c-.282-.078-.782-.203-.844-.203-.203 0-.36.172-.36.39 0 .423.36.516.704.595.562.156 2.984.75 3.296.812.25.063.407.063.72.063.343 0 .89.453.921.468.156.157.406.39.406.828 0 1.141-1.078 1.141-1.328 1.141-.453 0-1.078-.11-2.797-.75-.437-.172-.625-.25-.906-.25-.61 0-1.156.438-1.156 1.14C-6.328-.921-4.25-.39-4.125-.39-4.078-.39-4-.437-4-.547c0-.125-.063-.14-.266-.203-1.25-.36-1.765-.906-1.765-1.438 0-.156 0-.374.468-.374.063 0 .375 0 1 .234 1.797.672 2.375.828 2.922.828C-.125-1.5.141-2.734.141-3.469c0-.25 0-.89-1.016-1.469zm0 0"/></symbol><symbol id="q" overflow="visible"><path d="M-3.984-2.047v-.937c0-.204 0-.313-.204-.313-.109 0-.109.11-.109.281v.875c-1.422-.359-1.61-.406-1.672-.406-.172 0-.265.125-.265.297 0 .031 0 .313.359.39l1.578.391v.938c0 .203 0 .297.188.297.125 0 .125-.078.125-.282v-.875c2.828.72 3 .766 3.171.766.547 0 .922-.375.922-.922 0-1.016-1.453-1.578-1.53-1.578-.11 0-.11.078-.11.11 0 .093.031.109.14.156 1.047.421 1.282.953 1.282 1.296 0 .204-.125.313-.454.313-.25 0-.312-.031-.484-.063zm0 0"/></symbol><clipPath id="m"><path d="M276 6h195.477v148H276zm0 0"/></clipPath><clipPath id="n"><path d="M276 7h195.477v147H276zm0 0"/></clipPath><clipPath id="o"><path d="M276 5h195.477v163H276zm0 0"/></clipPath></defs><path d="M57.578 166.96V5.563m32.379 161.399V5.562m32.379 161.399V5.562m32.379 161.399V5.562m32.379 161.399V5.562m32.379 161.399V5.562M41.39 153.512h194.27M41.39 126.609h194.27M41.39 99.711h194.27M41.39 72.809h194.27M41.39 45.906h194.27M41.39 19.004h194.27" fill="none" stroke="#bfbfbf" stroke-width=".399" stroke-miterlimit="10"/><path d="M57.578 166.96v-4.25m32.379 4.25v-4.25m32.379 4.25v-4.25m32.379 4.25v-4.25m32.379 4.25v-4.25m32.379 4.25v-4.25M57.578 5.563v4.25m32.379-4.25v4.25m32.379-4.25v4.25m32.379-4.25v4.25m32.379-4.25v4.25m32.379-4.25v4.25M41.39 153.512h4.25m-4.25-26.903h4.25m-4.25-26.898h4.25m-4.25-26.902h4.25m-4.25-26.903h4.25m-4.25-26.902h4.25m190.02 134.508h-4.25m4.25-26.903h-4.25m4.25-26.898h-4.25m4.25-26.902h-4.25m4.25-26.903h-4.25m4.25-26.902h-4.25" fill="none" stroke="#7f7f7f" stroke-width=".199" stroke-miterlimit="10"/><path d="M41.39 166.96V5.563h194.27v161.399zm0 0" fill="none" stroke="#000" stroke-width=".399" stroke-miterlimit="10"/><use height="100%" width="100%" y="178.187" x="54.654" xlink:href="#a"/><use height="100%" width="100%" y="178.187" x="82.48" xlink:href="#a"/><use height="100%" width="100%" y="178.187" x="88.333" xlink:href="#b"/><use height="100%" width="100%" y="178.187" x="91.584" xlink:href="#c"/><use height="100%" width="100%" y="178.187" x="114.858" xlink:href="#a"/><use height="100%" width="100%" y="178.187" x="120.711" xlink:href="#b"/><use height="100%" width="100%" y="178.187" x="123.963" xlink:href="#d"/><use height="100%" width="100%" y="178.187" x="147.236" xlink:href="#a"/><use height="100%" width="100%" y="178.187" x="153.089" xlink:href="#b"/><use height="100%" width="100%" y="178.187" x="156.341" xlink:href="#e"/><use height="100%" width="100%" y="178.187" x="179.614" xlink:href="#a"/><use height="100%" width="100%" y="178.187" x="185.467" xlink:href="#b"/><use height="100%" width="100%" y="178.187" x="188.719" xlink:href="#f"/><use height="100%" width="100%" y="178.187" x="211.993" xlink:href="#a"/><use height="100%" width="100%" y="178.187" x="217.846" xlink:href="#b"/><use height="100%" width="100%" y="178.187" x="221.097" xlink:href="#g"/><use height="100%" width="100%" y="157.364" x="32.018" xlink:href="#a"/><use height="100%" width="100%" y="130.463" x="22.913" xlink:href="#a"/><use height="100%" width="100%" y="130.463" x="28.766" xlink:href="#b"/><use height="100%" width="100%" y="130.463" x="32.018" xlink:href="#d"/><use height="100%" width="100%" y="103.562" x="22.913" xlink:href="#a"/><use height="100%" width="100%" y="103.562" x="28.766" xlink:href="#b"/><use height="100%" width="100%" y="103.562" x="32.018" xlink:href="#f"/><use height="100%" width="100%" y="76.661" x="22.913" xlink:href="#a"/><use height="100%" width="100%" y="76.661" x="28.766" xlink:href="#b"/><use height="100%" width="100%" y="76.661" x="32.018" xlink:href="#h"/><use height="100%" width="100%" y="49.76" x="22.913" xlink:href="#a"/><use height="100%" width="100%" y="49.76" x="28.766" xlink:href="#b"/><use height="100%" width="100%" y="49.76" x="32.018" xlink:href="#i"/><use height="100%" width="100%" y="22.859" x="32.018" xlink:href="#c"/><path d="M57.578 153.512l1.637-.684 1.637-.687 1.632-.7 1.637-.703 1.637-.71 1.633-.72 1.636-.726 1.633-.734 1.637-.743 1.637-.746 1.632-.757 1.637-.766 1.637-.777 1.633-.782 1.636-.789 1.633-.8 1.637-.81 1.637-.815 1.632-.829 1.637-.836 1.637-.843 1.633-.856 1.636-.863 1.633-.875 1.637-.887 1.637-.894 1.632-.903 1.637-.918 1.637-.925 1.633-.938 1.636-.953 1.633-.957 1.637-.977 1.637-.98 1.632-1 1.637-1.004 1.637-1.023 1.633-1.036 1.636-1.046 1.633-1.06 1.637-1.073 1.637-1.09 1.633-1.098 1.636-1.117 1.637-1.129 1.633-1.148 1.637-1.157 1.632-1.175 1.637-1.196 1.637-1.207 1.633-1.222 1.636-1.243 1.637-1.257 1.633-1.274 1.637-1.293 1.632-1.312 1.637-1.328 1.637-1.352 1.633-1.367 1.636-1.39 1.637-1.407 1.633-1.43 1.637-1.453 1.632-1.472 1.637-1.493 1.637-1.515 1.633-1.54 1.636-1.566 1.637-1.59 1.633-1.609 1.637-1.64 1.632-1.665 1.637-1.691 1.637-1.719 1.633-1.746 1.636-1.77 1.637-1.808 1.633-1.832 1.637-1.867 1.632-1.895 1.637-1.93 1.637-1.964 1.633-1.992 1.636-2.032 1.637-2.066 1.633-2.106 1.637-2.14 1.632-2.184 1.637-2.219 1.637-2.265 1.633-2.301 1.636-2.352 1.637-2.39 1.633-2.442 1.637-2.484 1.633-2.535 1.636-2.586 1.637-2.637 1.633-2.687" fill="none" stroke="#00f" stroke-width=".797" stroke-miterlimit="10"/><use height="100%" width="100%" y="193.13" x="135.403" xlink:href="#j"/><use height="100%" width="100%" y="196.756" x="133.745" xlink:href="#k"/><use height="100%" width="100%" y="90.625" x="13.283" xlink:href="#l"/><path d="M289.89 166.965V5.566m33.04 161.399V5.566m33.039 161.399V5.566m33.039 161.399V5.566m33.043 161.399V5.566m33.039 161.399V5.566" fill="none" stroke="#bfbfbf" stroke-width=".399" stroke-miterlimit="10"/><g clip-path="url(#m)"><path d="M277.004 153.512H471.28m-194.277-29.266H471.28m-194.277-29.27H471.28M277.004 65.708H471.28M277.004 36.441H471.28M277.004 7.171H471.28" fill="none" stroke="#bfbfbf" stroke-width=".399" stroke-miterlimit="10"/></g><path d="M289.89 166.965v-4.254m33.04 4.254v-4.254m33.039 4.254v-4.254m33.039 4.254v-4.254m33.043 4.254v-4.254m33.039 4.254v-4.254M289.89 5.566V9.82m33.04-4.254V9.82m33.039-4.254V9.82m33.039-4.254V9.82m33.043-4.254V9.82m33.039-4.254V9.82" fill="none" stroke="#7f7f7f" stroke-width=".199" stroke-miterlimit="10"/><g clip-path="url(#n)"><path d="M277.004 153.512h4.25m-4.25-29.266h4.25m-4.25-29.27h4.25m-4.25-29.269h4.25m-4.25-29.266h4.25m-4.25-29.27h4.25m190.027 146.34h-4.254m4.254-29.265h-4.254m4.254-29.27h-4.254m4.254-29.269h-4.254m4.254-29.266h-4.254m4.254-29.27h-4.254" fill="none" stroke="#7f7f7f" stroke-width=".199" stroke-miterlimit="10"/></g><g clip-path="url(#o)"><path d="M277.004 166.965V5.566H471.28v161.399zm0 0" fill="none" stroke="#000" stroke-width=".399" stroke-miterlimit="10"/></g><use height="100%" width="100%" y="178.187" x="286.963" xlink:href="#a"/><use height="100%" width="100%" y="178.187" x="315.45" xlink:href="#a"/><use height="100%" width="100%" y="178.187" x="321.303" xlink:href="#b"/><use height="100%" width="100%" y="178.187" x="324.555" xlink:href="#c"/><use height="100%" width="100%" y="178.187" x="348.49" xlink:href="#a"/><use height="100%" width="100%" y="178.187" x="354.343" xlink:href="#b"/><use height="100%" width="100%" y="178.187" x="357.594" xlink:href="#d"/><use height="100%" width="100%" y="178.187" x="381.529" xlink:href="#a"/><use height="100%" width="100%" y="178.187" x="387.382" xlink:href="#b"/><use height="100%" width="100%" y="178.187" x="390.634" xlink:href="#e"/><use height="100%" width="100%" y="178.187" x="414.569" xlink:href="#a"/><use height="100%" width="100%" y="178.187" x="420.422" xlink:href="#b"/><use height="100%" width="100%" y="178.187" x="423.673" xlink:href="#f"/><use height="100%" width="100%" y="178.187" x="447.608" xlink:href="#a"/><use height="100%" width="100%" y="178.187" x="453.461" xlink:href="#b"/><use height="100%" width="100%" y="178.187" x="456.713" xlink:href="#g"/><use height="100%" width="100%" y="157.365" x="267.63" xlink:href="#a"/><use height="100%" width="100%" y="128.097" x="267.63" xlink:href="#c"/><use height="100%" width="100%" y="98.829" x="267.63" xlink:href="#d"/><use height="100%" width="100%" y="69.561" x="267.63" xlink:href="#e"/><use height="100%" width="100%" y="40.293" x="267.63" xlink:href="#f"/><use height="100%" width="100%" y="11.025" x="267.63" xlink:href="#g"/><path d="M293.191 19.02l1.637 11.914 1.637 8.52 1.633 6.651 1.636 5.461 1.637 4.649 1.633 4.05 1.637 3.59 1.636 3.227 1.633 2.938 1.637 2.695 1.633 2.492 1.636 2.32 1.637 2.176 1.633 2.043 1.637 1.93 1.636 1.832 1.633 1.738 1.637 1.66 1.637 1.586 1.632 1.524 1.637 1.464 1.633 1.407 1.637 1.36 1.636 1.312 1.633 1.27 1.637 1.23 1.637 1.195 1.632 1.16 1.637 1.133 1.637 1.098 1.633 1.074 1.636 1.047 1.637 1.023 1.633 1 1.637.977 1.633.96 1.636.938 1.637.922 1.633.902 1.636.887 1.637.875 1.633.855 1.637.84 1.636.836 1.633.813 1.637.804 1.633.797 1.637.782 1.636.773 1.633.762 1.637.754 1.636.742 1.633.738 1.637.723 1.637.719 1.633.714 1.636.703 1.637.7 1.633.691 1.637.684 1.632.675 1.637.672 1.637.668 1.633.66 1.636.657 1.637.652 1.633.645 1.637.644 1.636.637 1.633.633 1.637.629 1.637.625 1.632.62 1.637.622 1.633.613 1.637.613 1.636.61 1.633.61 1.637.6 1.637.606 1.632.598 1.637.594 1.637.597 1.633.594 1.636.59 1.633.59 1.637.586 1.637.593 1.632.586 1.637.586 1.637.582 1.633.582 3.273 1.164 1.633.582 3.273 1.157 1.633.582 1.637.578" fill="none" stroke="#00f" stroke-width=".797" stroke-miterlimit="10"/><use height="100%" width="100%" y="193.13" x="371.019" xlink:href="#j"/><use height="100%" width="100%" y="196.757" x="369.362" xlink:href="#k"/><use height="100%" width="100%" y="93.335" x="258.638" xlink:href="#p"/><use height="100%" width="100%" y="83.294" x="260.79" xlink:href="#q"/></svg>