<svg xmlns="http://www.w3.org/2000/svg" xmlns:xlink="http://www.w3.org/1999/xlink" version="1.2" viewBox="0 0 131.028 119.669" height="159.559" width="174.704"><defs><symbol id="a" overflow="visible"><path d="M3.375-5.516c-.047-.109-.063-.171-.203-.171s-.172.062-.203.171L1.188-.828c-.079.219-.25.562-.907.562V0c.266-.031.688-.031.828-.031.25 0 .5 0 .875.031v-.266c-.343 0-.546-.171-.546-.39 0-.063 0-.078.03-.172l.376-1h2.172l.453 1.187A.419.419 0 014.5-.5c0 .234-.406.234-.64.234V0c.687-.031.703-.031 1.14-.031.438 0 .594 0 1.047.031v-.266h-.14c-.5 0-.579-.062-.673-.328zm-.438.829l.97 2.593h-1.97zm0 0"/></symbol><symbol id="b" overflow="visible"><path d="M1.375-.547C1.125-.578.937-.78.937-1.078c0-.188.047-.266.094-.328.344.187.657.234.844.234.781 0 1.375-.547 1.375-1.172 0-.297-.14-.562-.328-.765a1.19 1.19 0 01.765-.266c-.03.016-.078.063-.078.188 0 .14.11.25.25.25a.25.25 0 00.25-.266.43.43 0 00-.453-.406c-.14 0-.531.046-.89.375a1.585 1.585 0 00-.891-.282c-.781 0-1.36.547-1.36 1.172 0 .375.204.656.376.813a.934.934 0 00.094 1.36c-.422.108-.75.421-.75.78 0 .579.828 1.032 1.874 1.032 1 0 1.875-.407 1.875-1.047 0-.422-.25-.766-.515-.89-.469-.25-.86-.25-1.64-.25zm.5-.86c-.734 0-.734-.765-.734-.937 0-.297.03-.5.156-.656a.717.717 0 01.578-.281c.734 0 .734.765.734.937 0 .297-.03.5-.156.656a.703.703 0 01-.578.282zM2.25-.03c.219 0 1.266 0 1.266.64 0 .422-.61.797-1.407.797-.796 0-1.406-.375-1.406-.797 0-.171.14-.64.781-.64zm0 0"/></symbol><symbol id="c" overflow="visible"><path d="M3.297-1.813c.172 0 .219 0 .219-.187 0-.703-.391-1.547-1.516-1.547-.984 0-1.766.813-1.766 1.797 0 1.031.86 1.828 1.875 1.828 1 0 1.407-.844 1.407-1.031a.12.12 0 00-.125-.11c-.094 0-.11.047-.125.094a1.14 1.14 0 01-1.11.797c-.36 0-.734-.156-.969-.531-.234-.36-.234-.875-.234-1.11zM.953-2.03c.078-1.11.75-1.297 1.047-1.297.938 0 .969 1.125.969 1.297zm0 0"/></symbol><symbol id="d" overflow="visible"><path d="M7.734-4.64c.11-.329.329-.532.797-.532v-.266c-.265.016-.531.016-.781.016s-.484 0-.922-.016v.266c.438 0 .656.203.656.422 0 .031 0 .047-.03.156L6.187-.922 4.843-4.797c-.032-.094-.032-.11-.032-.14 0-.235.407-.235.641-.235v-.266a33.11 33.11 0 01-1.11.016c-.296 0-.624 0-.984-.016v.266c.422 0 .547.016.641.14.063.095.203.563.203.579l-.031.094L2.984-.922 1.656-4.797c-.047-.11-.047-.125-.047-.14 0-.235.422-.235.657-.235v-.266c-.688.016-.704.016-1.11.016-.297 0-.64 0-1-.016v.266c.469 0 .61 0 .719.297l1.672 4.86c.047.109.078.187.203.187.11 0 .156-.078.188-.188l1.406-4.062L5.75-.016c.031.094.063.188.188.188s.156-.078.203-.188zm0 0"/></symbol><symbol id="e" overflow="visible"><path d="M1.547-4.906c0-.235-.172-.453-.438-.453a.437.437 0 00-.437.437.45.45 0 00.437.453.436.436 0 00.438-.437zM.359-3.422v.266c.516 0 .579.047.579.437v2.094c0 .36-.094.36-.61.36V0c.313-.031.766-.031.89-.031.095 0 .579 0 .86.031v-.266c-.531 0-.562-.03-.562-.343v-2.907zm0 0"/></symbol><symbol id="f" overflow="visible"><path d="M3.875-2.422c0-.656-.313-1.094-1.14-1.094-.704 0-1.063.454-1.22.704v-2.72l-1.187.095v.265c.547 0 .61.047.61.438v4.109c0 .36-.094.36-.61.36V0c.344-.031.688-.031.906-.031.235 0 .563 0 .907.031v-.266c-.5 0-.61 0-.61-.359v-1.438c0-.843.64-1.234 1.125-1.234s.61.344.61.844v1.828c0 .36-.094.36-.61.36V0c.344-.031.703-.031.906-.031.235 0 .579 0 .922.031v-.266c-.515 0-.609 0-.609-.359zm0 0"/></symbol><symbol id="g" overflow="visible"><path d="M1.484-3.172h1.188v-.265H1.484v-1.47h-.25c0 .735-.328 1.485-1.078 1.516v.22h.719V-1c0 .938.719 1.078 1.078 1.078.547 0 .86-.469.86-1.078v-.438h-.25v.422c0 .547-.25.844-.547.844-.532 0-.532-.687-.532-.812zm0 0"/></symbol><symbol id="h" overflow="visible"><path d="M2.11-5.531L.983-4.47l.157.203.968-.796.97.796.171-.187zm0 0"/></symbol><symbol id="i" overflow="visible"><path d="M4.125-3c.031-.11.031-.125.031-.188 0-.203-.156-.25-.25-.25-.047 0-.219.016-.328.22a5.65 5.65 0 00-.125.5L2.97-.814c0 .032-.344.672-.922.672-.39 0-.531-.296-.531-.64 0-.469.265-1.172.453-1.64.078-.204.11-.267.11-.423 0-.437-.36-.672-.72-.672-.796 0-1.125 1.125-1.125 1.22 0 .077.063.108.125.108.11 0 .11-.046.141-.124.203-.704.547-.985.828-.985.125 0 .188.078.188.266 0 .172-.063.36-.11.5-.328.844-.468 1.25-.468 1.625 0 .781.593.984 1.062.984.375 0 .64-.172.844-.344-.125.438-.203.75-.5 1.141-.266.313-.578.531-.938.531-.14 0-.437-.031-.593-.265a.452.452 0 00.453-.438c0-.187-.157-.297-.313-.297C.766.406.5.546.5.937c0 .375.344.688.906.688.813 0 1.719-.656 1.969-1.61zm0 0"/></symbol><symbol id="j" overflow="visible"><path d="M2.14-3.797c0-.187-.015-.187-.203-.187-.39.39-1 .39-1.218.39v.235c.156 0 .562 0 .922-.172v3.015c0 .204 0 .282-.625.282h-.25V0c.328-.031.796-.031 1.125-.031.328 0 .796 0 1.125.031v-.234h-.25c-.625 0-.625-.078-.625-.282zm0 0"/></symbol><symbol id="p" overflow="visible"><path d="M3.219-1.125H3c-.016.094-.078.484-.156.547-.047.047-.531.047-.625.047h-1.11l.766-.625c.203-.172.734-.547.922-.735.172-.171.422-.484.422-.906 0-.75-.672-1.187-1.485-1.187-.765 0-1.296.515-1.296 1.078 0 .297.25.344.312.344a.32.32 0 00.328-.329c0-.125-.078-.328-.344-.328.141-.297.5-.531.922-.531.625 0 .953.469.953.953 0 .422-.28.86-.687 1.25L.5-.25C.437-.187.437-.187.437 0h2.594zm0 0"/></symbol><symbol id="t" overflow="visible"><path d="M1.766-1.984c.5 0 .843.343.843.953 0 .656-.39.937-.828.937C1.61-.094 1-.125.734-.469c.235-.031.329-.187.329-.344a.328.328 0 00-.344-.343.34.34 0 00-.344.36c0 .593.656.921 1.422.921.89 0 1.469-.563 1.469-1.156 0-.438-.329-.907-1.047-1.078.484-.157.86-.547.86-1.032 0-.484-.563-.843-1.282-.843-.703 0-1.234.328-1.234.812 0 .266.203.328.328.328.156 0 .312-.094.312-.312 0-.188-.125-.297-.297-.313.281-.312.828-.312.89-.312.298 0 .688.14.688.64 0 .329-.187.907-.796.938-.11 0-.266.015-.313.015-.063.016-.125.016-.125.11s.063.094.156.094zm0 0"/></symbol><symbol id="x" overflow="visible"><path d="M3.375-.984v-.235h-.703v-2.64c0-.141 0-.188-.14-.188-.11 0-.126.031-.173.094L.281-1.22v.235h1.86V-.5c0 .188 0 .266-.5.266h-.188V0c.125 0 .688-.031.953-.031.266 0 .828.031.938.031v-.234h-.172c-.5 0-.5-.078-.5-.266v-.484zM2.172-3.391v2.172H.532zm0 0"/></symbol><symbol id="k" overflow="visible"><path d="M4.281-3.094c.078-.031.125-.062.125-.14a.14.14 0 00-.14-.141c-.016 0-.016 0-.094.047L.656-1.641c-.078.032-.125.063-.125.141 0 .078.047.125.125.156L4.172.344c.078.047.078.047.094.047a.14.14 0 00.14-.141c0-.078-.047-.125-.125-.156L.984-1.5zm0 0"/></symbol><symbol id="l" overflow="visible"><path d="M.828-1.984c0-.5.047-.938.25-1.297.188-.297.484-.547.86-.547.125 0 .406.015.546.234-.28.016-.296.219-.296.281 0 .172.14.282.28.282.11 0 .282-.063.282-.297 0-.36-.266-.656-.813-.656-.828 0-1.671.796-1.671 2.093 0 1.61.75 2.016 1.328 2.016.297 0 .61-.078.875-.328.234-.234.437-.484.437-1.016 0-.781-.594-1.328-1.25-1.328-.437 0-.687.266-.828.563zm.766 1.937c-.313 0-.516-.234-.594-.39C.86-.72.844-1.125.844-1.345c0-.593.328-1.031.781-1.031.297 0 .484.156.594.36.125.218.125.484.125.796 0 .297 0 .563-.125.782a.65.65 0 01-.625.39zm0 0"/></symbol><symbol id="m" overflow="visible"><path d="M2.922-1.906c0-.64-.063-1.032-.266-1.422-.25-.516-.734-.656-1.078-.656-.75 0-1.016.562-1.11.734C.25-2.812.25-2.219.25-1.906c0 .39.016 1 .297 1.468.281.454.719.563 1.031.563.297 0 .813-.094 1.11-.688.218-.421.234-.953.234-1.343zM1.578-.046c-.203 0-.61-.095-.734-.72C.78-1.109.78-1.672.78-1.984c0-.407 0-.829.063-1.157.125-.609.594-.671.734-.671.219 0 .625.109.75.64.063.328.063.781.063 1.188 0 .359 0 .89-.063 1.234-.125.625-.547.703-.75.703zm0 0"/></symbol><symbol id="q" overflow="visible"><path d="M1.875-3.813c0-.156-.016-.171-.172-.171-.25.25-.562.39-1.125.39v.188c.156 0 .485 0 .828-.156v3.078c0 .218-.015.28-.593.28H.609V0c.25-.016.766-.016 1.032-.016.265 0 .78 0 1.03.016v-.203H2.47c-.578 0-.594-.063-.594-.281zm0 0"/></symbol><symbol id="v" overflow="visible"><path d="M1.688-1.219c.093-.093.343-.297.437-.375.375-.343.734-.672.734-1.218 0-.704-.609-1.172-1.343-1.172-.72 0-1.204.546-1.204 1.078 0 .297.235.344.329.344a.315.315 0 00.312-.329c0-.312-.312-.312-.375-.312a.939.939 0 01.86-.578c.562 0 .843.469.843.969 0 .624-.437 1.078-1.14 1.812l-.75.766C.312-.156.312-.156.312 0h2.376l.171-1.078h-.187c-.016.125-.063.422-.14.547-.032.047-.485.047-.595.047H.875zm0 0"/></symbol><symbol id="u" overflow="visible"><path d="M4.281-1.969c.078-.047.125-.078.125-.156s-.047-.11-.125-.156L.781-3.97C.703-4 .671-4 .671-4a.14.14 0 00-.14.14c0 .079.047.11.125.141l3.297 1.594L.672-.531c-.094.047-.14.062-.14.14a.14.14 0 00.14.141c.015 0 .015 0 .094-.031zm-.093 2.985c.093 0 .218 0 .218-.141 0-.14-.14-.14-.234-.14H.766c-.11 0-.235 0-.235.14s.125.14.219.14zm0 0"/></symbol><clipPath id="n"><path d="M39 105h14v14.668H39zm0 0"/></clipPath><clipPath id="o"><path d="M33 100h26v19.668H33zm0 0"/></clipPath><clipPath id="r"><path d="M117 105h14v14.668h-14zm0 0"/></clipPath><clipPath id="s"><path d="M111 100h20.027v19.668H111zm0 0"/></clipPath><clipPath id="w"><path d="M111 29h20.027v26H111zm0 0"/></clipPath></defs><use height="100%" width="100%" y="8.269" x="77.832" xlink:href="#a"/><use height="100%" width="100%" y="8.269" x="84.175" xlink:href="#b"/><use height="100%" width="100%" y="8.269" x="88.409" xlink:href="#c"/><use height="100%" width="100%" y="43.746" x="32.975" xlink:href="#d"/><use height="100%" width="100%" y="43.746" x="40.961" xlink:href="#c"/><use height="100%" width="100%" y="43.746" x="44.725" xlink:href="#e"/><use height="100%" width="100%" y="43.746" x="47.076" xlink:href="#b"/><use height="100%" width="100%" y="43.746" x="51.311" xlink:href="#f"/><use height="100%" width="100%" y="43.746" x="55.785" xlink:href="#g"/><path d="M77.832 12.84l-24.59 22.348" fill="none" stroke="#000" stroke-width=".399" stroke-miterlimit="10"/><path d="M13.898 77.188a6.85 6.85 0 10-13.699 0 6.852 6.852 0 006.848 6.851 6.853 6.853 0 006.851-6.852zm0 0" fill="#97ff97" stroke="#000" stroke-width=".399" stroke-miterlimit="10"/><use height="100%" width="100%" y="79.179" x="3.47" xlink:href="#h"/><use height="100%" width="100%" y="79.179" x="2.881" xlink:href="#i"/><use height="100%" width="100%" y="80.286" x="7.067" xlink:href="#j"/><path d="M38.805 48.316l-26.54 24.13" fill="none" stroke="#000" stroke-width=".399" stroke-miterlimit="10"/><use height="100%" width="100%" y="62.118" x="10.214" xlink:href="#k"/><use height="100%" width="100%" y="62.118" x="16.918" xlink:href="#l"/><use height="100%" width="100%" y="62.118" x="20.094" xlink:href="#m"/><use height="100%" width="100%" y="79.135" x="77.832" xlink:href="#a"/><use height="100%" width="100%" y="79.135" x="84.175" xlink:href="#b"/><use height="100%" width="100%" y="79.135" x="88.409" xlink:href="#c"/><path d="M53.246 48.316l24.586 22.352" fill="none" stroke="#000" stroke-width=".399" stroke-miterlimit="10"/><g clip-path="url(#n)"><path d="M52.875 112.621a6.85 6.85 0 10-13.7 0 6.852 6.852 0 006.848 6.852 6.853 6.853 0 006.852-6.852zm0 0" fill="#ff9797"/></g><g clip-path="url(#o)"><path d="M52.875 112.621a6.85 6.85 0 10-13.7 0 6.852 6.852 0 006.848 6.852 6.853 6.853 0 006.852-6.852zm0 0" fill="none" stroke="#000" stroke-width=".399" stroke-miterlimit="10"/></g><use height="100%" width="100%" y="114.612" x="42.447" xlink:href="#h"/><use height="100%" width="100%" y="114.612" x="41.858" xlink:href="#i"/><use height="100%" width="100%" y="115.719" x="46.043" xlink:href="#p"/><path d="M77.832 83.707l-26.59 24.172" fill="none" stroke="#000" stroke-width=".399" stroke-miterlimit="10"/><use height="100%" width="100%" y="97.529" x="49.215" xlink:href="#k"/><use height="100%" width="100%" y="97.529" x="55.919" xlink:href="#q"/><use height="100%" width="100%" y="97.529" x="59.095" xlink:href="#m"/><g clip-path="url(#r)"><path d="M130.828 112.621a6.85 6.85 0 10-13.7 0 6.853 6.853 0 006.852 6.852 6.852 6.852 0 006.848-6.852zm0 0" fill="#9797ff"/></g><g clip-path="url(#s)"><path d="M130.828 112.621a6.85 6.85 0 10-13.7 0 6.853 6.853 0 006.852 6.852 6.852 6.852 0 006.848-6.852zm0 0" fill="none" stroke="#000" stroke-width=".399" stroke-miterlimit="10"/></g><use height="100%" width="100%" y="114.612" x="120.399" xlink:href="#h"/><use height="100%" width="100%" y="114.612" x="119.81" xlink:href="#i"/><use height="100%" width="100%" y="115.719" x="123.996" xlink:href="#t"/><path d="M92.172 83.707l26.59 24.172" fill="none" stroke="#000" stroke-width=".399" stroke-miterlimit="10"/><use height="100%" width="100%" y="97.286" x="107.734" xlink:href="#u"/><use height="100%" width="100%" y="97.286" x="114.438" xlink:href="#q"/><use height="100%" width="100%" y="97.286" x="117.614" xlink:href="#m"/><use height="100%" width="100%" y="60.986" x="67.806" xlink:href="#u"/><use height="100%" width="100%" y="60.986" x="74.51" xlink:href="#l"/><use height="100%" width="100%" y="60.986" x="77.686" xlink:href="#m"/><use height="100%" width="100%" y="25.752" x="50.216" xlink:href="#k"/><use height="100%" width="100%" y="25.752" x="56.92" xlink:href="#v"/><use height="100%" width="100%" y="25.752" x="60.096" xlink:href="#m"/><path d="M130.828 41.754a6.85 6.85 0 10-13.7 0 6.853 6.853 0 006.852 6.851 6.852 6.852 0 006.848-6.851zm0 0" fill="#fff899"/><g clip-path="url(#w)"><path d="M130.828 41.754a6.85 6.85 0 10-13.7 0 6.853 6.853 0 006.852 6.851 6.852 6.852 0 006.848-6.851zm0 0" fill="none" stroke="#000" stroke-width=".399" stroke-miterlimit="10"/></g><use height="100%" width="100%" y="43.746" x="120.399" xlink:href="#h"/><use height="100%" width="100%" y="43.746" x="119.81" xlink:href="#i"/><use height="100%" width="100%" y="44.853" x="123.996" xlink:href="#x"/><path d="M92.172 12.84l26.59 24.172" fill="none" stroke="#000" stroke-width=".399" stroke-miterlimit="10"/><use height="100%" width="100%" y="26.42" x="107.734" xlink:href="#u"/><use height="100%" width="100%" y="26.42" x="114.438" xlink:href="#v"/><use height="100%" width="100%" y="26.42" x="117.614" xlink:href="#m"/></svg>