<svg xmlns="http://www.w3.org/2000/svg" xmlns:xlink="http://www.w3.org/1999/xlink" version="1.2" viewBox="0 0 110.906 110.808" height="147.744" width="147.875"><defs><symbol id="a" overflow="visible"><path d="M2.11-5.531L.983-4.47l.157.203.968-.796.97.796.171-.187zm0 0"/></symbol><symbol id="g" overflow="visible"><path d="M3.375-5.516c-.047-.109-.063-.171-.203-.171s-.172.062-.203.171L1.188-.828c-.079.219-.25.562-.907.562V0c.266-.031.688-.031.828-.031.25 0 .5 0 .875.031v-.266c-.343 0-.546-.171-.546-.39 0-.063 0-.078.03-.172l.376-1h2.172l.453 1.187A.419.419 0 014.5-.5c0 .234-.406.234-.64.234V0c.687-.031.703-.031 1.14-.031.438 0 .594 0 1.047.031v-.266h-.14c-.5 0-.579-.062-.673-.328zm-.438.829l.97 2.593h-1.97zm0 0"/></symbol><symbol id="h" overflow="visible"><path d="M1.375-.547C1.125-.578.937-.78.937-1.078c0-.188.047-.266.094-.328.344.187.657.234.844.234.781 0 1.375-.547 1.375-1.172 0-.297-.14-.562-.328-.765a1.19 1.19 0 01.765-.266c-.03.016-.078.063-.078.188 0 .14.11.25.25.25a.25.25 0 00.25-.266.43.43 0 00-.453-.406c-.14 0-.531.046-.89.375a1.585 1.585 0 00-.891-.282c-.781 0-1.36.547-1.36 1.172 0 .375.204.656.376.813a.934.934 0 00.094 1.36c-.422.108-.75.421-.75.78 0 .579.828 1.032 1.874 1.032 1 0 1.875-.407 1.875-1.047 0-.422-.25-.766-.515-.89-.469-.25-.86-.25-1.64-.25zm.5-.86c-.734 0-.734-.765-.734-.937 0-.297.03-.5.156-.656a.717.717 0 01.578-.281c.734 0 .734.765.734.937 0 .297-.03.5-.156.656a.703.703 0 01-.578.282zM2.25-.03c.219 0 1.266 0 1.266.64 0 .422-.61.797-1.407.797-.796 0-1.406-.375-1.406-.797 0-.171.14-.64.781-.64zm0 0"/></symbol><symbol id="i" overflow="visible"><path d="M3.297-1.813c.172 0 .219 0 .219-.187 0-.703-.391-1.547-1.516-1.547-.984 0-1.766.813-1.766 1.797 0 1.031.86 1.828 1.875 1.828 1 0 1.407-.844 1.407-1.031a.12.12 0 00-.125-.11c-.094 0-.11.047-.125.094a1.14 1.14 0 01-1.11.797c-.36 0-.734-.156-.969-.531-.234-.36-.234-.875-.234-1.11zM.953-2.03c.078-1.11.75-1.297 1.047-1.297.938 0 .969 1.125.969 1.297zm0 0"/></symbol><symbol id="j" overflow="visible"><path d="M7.734-4.64c.11-.329.329-.532.797-.532v-.266c-.265.016-.531.016-.781.016s-.484 0-.922-.016v.266c.438 0 .656.203.656.422 0 .031 0 .047-.03.156L6.187-.922 4.843-4.797c-.032-.094-.032-.11-.032-.14 0-.235.407-.235.641-.235v-.266a33.11 33.11 0 01-1.11.016c-.296 0-.624 0-.984-.016v.266c.422 0 .547.016.641.14.063.095.203.563.203.579l-.031.094L2.984-.922 1.656-4.797c-.047-.11-.047-.125-.047-.14 0-.235.422-.235.657-.235v-.266c-.688.016-.704.016-1.11.016-.297 0-.64 0-1-.016v.266c.469 0 .61 0 .719.297l1.672 4.86c.047.109.078.187.203.187.11 0 .156-.078.188-.188l1.406-4.062L5.75-.016c.031.094.063.188.188.188s.156-.078.203-.188zm0 0"/></symbol><symbol id="k" overflow="visible"><path d="M1.547-4.906c0-.235-.172-.453-.438-.453a.437.437 0 00-.437.437.45.45 0 00.437.453.436.436 0 00.438-.437zM.359-3.422v.266c.516 0 .579.047.579.437v2.094c0 .36-.094.36-.61.36V0c.313-.031.766-.031.89-.031.095 0 .579 0 .86.031v-.266c-.531 0-.562-.03-.562-.343v-2.907zm0 0"/></symbol><symbol id="l" overflow="visible"><path d="M3.875-2.422c0-.656-.313-1.094-1.14-1.094-.704 0-1.063.454-1.22.704v-2.72l-1.187.095v.265c.547 0 .61.047.61.438v4.109c0 .36-.094.36-.61.36V0c.344-.031.688-.031.906-.031.235 0 .563 0 .907.031v-.266c-.5 0-.61 0-.61-.359v-1.438c0-.843.64-1.234 1.125-1.234s.61.344.61.844v1.828c0 .36-.094.36-.61.36V0c.344-.031.703-.031.906-.031.235 0 .579 0 .922.031v-.266c-.515 0-.609 0-.609-.359zm0 0"/></symbol><symbol id="m" overflow="visible"><path d="M1.484-3.172h1.188v-.265H1.484v-1.47h-.25c0 .735-.328 1.485-1.078 1.516v.22h.719V-1c0 .938.719 1.078 1.078 1.078.547 0 .86-.469.86-1.078v-.438h-.25v.422c0 .547-.25.844-.547.844-.532 0-.532-.687-.532-.812zm0 0"/></symbol><symbol id="b" overflow="visible"><path d="M4.125-3c.031-.11.031-.125.031-.188 0-.203-.156-.25-.25-.25-.047 0-.219.016-.328.22a5.65 5.65 0 00-.125.5L2.97-.814c0 .032-.344.672-.922.672-.39 0-.531-.296-.531-.64 0-.469.265-1.172.453-1.64.078-.204.11-.267.11-.423 0-.437-.36-.672-.72-.672-.796 0-1.125 1.125-1.125 1.22 0 .077.063.108.125.108.11 0 .11-.046.141-.124.203-.704.547-.985.828-.985.125 0 .188.078.188.266 0 .172-.063.36-.11.5-.328.844-.468 1.25-.468 1.625 0 .781.593.984 1.062.984.375 0 .64-.172.844-.344-.125.438-.203.75-.5 1.141-.266.313-.578.531-.938.531-.14 0-.437-.031-.593-.265a.452.452 0 00.453-.438c0-.187-.157-.297-.313-.297C.766.406.5.546.5.937c0 .375.344.688.906.688.813 0 1.719-.656 1.969-1.61zm0 0"/></symbol><symbol id="c" overflow="visible"><path d="M2.14-3.797c0-.187-.015-.187-.203-.187-.39.39-1 .39-1.218.39v.235c.156 0 .562 0 .922-.172v3.015c0 .204 0 .282-.625.282h-.25V0c.328-.031.796-.031 1.125-.031.328 0 .796 0 1.125.031v-.234h-.25c-.625 0-.625-.078-.625-.282zm0 0"/></symbol><symbol id="d" overflow="visible"><path d="M3.219-1.125H3c-.016.094-.078.484-.156.547-.047.047-.531.047-.625.047h-1.11l.766-.625c.203-.172.734-.547.922-.735.172-.171.422-.484.422-.906 0-.75-.672-1.187-1.485-1.187-.765 0-1.296.515-1.296 1.078 0 .297.25.344.312.344a.32.32 0 00.328-.329c0-.125-.078-.328-.344-.328.141-.297.5-.531.922-.531.625 0 .953.469.953.953 0 .422-.28.86-.687 1.25L.5-.25C.437-.187.437-.187.437 0h2.594zm0 0"/></symbol><symbol id="e" overflow="visible"><path d="M1.766-1.984c.5 0 .843.343.843.953 0 .656-.39.937-.828.937C1.61-.094 1-.125.734-.469c.235-.031.329-.187.329-.344a.328.328 0 00-.344-.343.34.34 0 00-.344.36c0 .593.656.921 1.422.921.89 0 1.469-.563 1.469-1.156 0-.438-.329-.907-1.047-1.078.484-.157.86-.547.86-1.032 0-.484-.563-.843-1.282-.843-.703 0-1.234.328-1.234.812 0 .266.203.328.328.328.156 0 .312-.094.312-.312 0-.188-.125-.297-.297-.313.281-.312.828-.312.89-.312.298 0 .688.14.688.64 0 .329-.187.907-.796.938-.11 0-.266.015-.313.015-.063.016-.125.016-.125.11s.063.094.156.094zm0 0"/></symbol><symbol id="f" overflow="visible"><path d="M3.375-.984v-.235h-.703v-2.64c0-.141 0-.188-.14-.188-.11 0-.126.031-.173.094L.281-1.22v.235h1.86V-.5c0 .188 0 .266-.5.266h-.188V0c.125 0 .688-.031.953-.031.266 0 .828.031.938.031v-.234h-.172c-.5 0-.5-.078-.5-.266v-.484zM2.172-3.391v2.172H.532zm0 0"/></symbol><symbol id="n" overflow="visible"><path d="M2.938-.969h-.22c0 .094-.062.406-.14.453-.031.032-.453.032-.531.032h-.969c.328-.235.688-.516.984-.72.454-.312.876-.593.876-1.124 0-.64-.61-.985-1.313-.985-.672 0-1.172.376-1.172.876 0 .25.219.296.297.296a.283.283 0 00.281-.296.27.27 0 00-.281-.282c.14-.234.438-.375.766-.375.484 0 .89.281.89.766 0 .422-.297.75-.672 1.062L.516-.234c-.047.047-.063.047-.063.078V0h2.313zm0 0"/></symbol><symbol id="o" overflow="visible"><path d="M3-1.594c0-.36 0-1.718-1.313-1.718C.391-3.313.391-1.954.391-1.595.39-1.234.39.11 1.687.11 3 .11 3-1.234 3-1.594zM1.687-.062c-.171 0-.593-.063-.718-.563C.89-.891.89-1.25.89-1.656c0-.375 0-.719.078-1 .125-.422.515-.5.719-.5.375 0 .64.187.734.547.078.25.078.656.078.953 0 .343 0 .75-.078 1.047-.125.484-.531.546-.735.546zm0 0"/></symbol><symbol id="p" overflow="visible"><path d="M1.984-3.172c0-.14-.015-.14-.187-.14C1.453-3 .89-3 .797-3H.719v.219h.078c.11 0 .437-.016.734-.14v2.5c0 .14 0 .202-.531.202H.75V0c.266-.016.719-.016 1-.016.297 0 .734 0 1.016.016v-.219h-.25c-.532 0-.532-.062-.532-.203zm0 0"/></symbol><symbol id="q" overflow="visible"><path d="M.922-1.64c.015-.22.015-.626.187-.938a1.08 1.08 0 01.938-.547c.094 0 .328 0 .469.125a.261.261 0 00-.204.266c0 .156.11.265.266.265.078 0 .266-.047.266-.281 0-.266-.203-.563-.797-.563-.86 0-1.64.704-1.64 1.735C.406-.391.983.109 1.702.109c.5 0 .734-.187.906-.328a.975.975 0 00.375-.797c0-.312-.093-.546-.359-.78-.219-.204-.438-.345-.875-.345-.297 0-.61.141-.828.5zm.781 1.546c-.766 0-.766-.828-.766-1.031 0-.39.282-.844.797-.844.266 0 .422.063.579.266.14.187.156.39.156.672 0 .297 0 .484-.172.687-.14.156-.313.25-.594.25zm0 0"/></symbol></defs><path d="M15.875 97.969v-42.52h42.52v42.52zm0 0" fill="#97ff97"/><use height="100%" width="100%" y="78.7" x="33.554" xlink:href="#a"/><use height="100%" width="100%" y="78.7" x="32.965" xlink:href="#b"/><use height="100%" width="100%" y="79.807" x="37.151" xlink:href="#c"/><path d="M15.875 55.45V12.925h21.258v42.523zm0 0" fill="#ff9797"/><use height="100%" width="100%" y="36.181" x="22.924" xlink:href="#a"/><use height="100%" width="100%" y="36.181" x="22.335" xlink:href="#b"/><use height="100%" width="100%" y="37.288" x="26.521" xlink:href="#d"/><path d="M37.133 55.45V12.925h21.262v42.523zm0 0" fill="#9797ff"/><use height="100%" width="100%" y="36.181" x="44.184" xlink:href="#a"/><use height="100%" width="100%" y="36.181" x="43.595" xlink:href="#b"/><use height="100%" width="100%" y="37.288" x="47.781" xlink:href="#e"/><path d="M58.395 97.969V12.926h42.52v85.043zm0 0" fill="#fff899"/><use height="100%" width="100%" y="57.441" x="76.074" xlink:href="#a"/><use height="100%" width="100%" y="57.441" x="75.485" xlink:href="#b"/><use height="100%" width="100%" y="58.548" x="79.671" xlink:href="#f"/><path d="M8.79 97.969h90.132" fill="none" stroke="#000" stroke-width=".399" stroke-miterlimit="10"/><path d="M100.914 97.969l-3.187-1.594 1.195 1.594-1.195 1.594"/><use height="100%" width="100%" y="106.436" x="93.743" xlink:href="#g"/><use height="100%" width="100%" y="106.436" x="100.086" xlink:href="#h"/><use height="100%" width="100%" y="106.436" x="104.32" xlink:href="#i"/><path d="M15.875 105.055V14.922" fill="none" stroke="#000" stroke-width=".399" stroke-miterlimit="10"/><path d="M15.875 12.926l-1.594 3.191 1.594-1.195 1.594 1.195"/><use height="100%" width="100%" y="8.357" x="2.822" xlink:href="#j"/><use height="100%" width="100%" y="8.357" x="10.816" xlink:href="#i"/><use height="100%" width="100%" y="8.357" x="14.579" xlink:href="#k"/><use height="100%" width="100%" y="8.357" x="16.931" xlink:href="#h"/><use height="100%" width="100%" y="8.357" x="21.166" xlink:href="#l"/><use height="100%" width="100%" y="8.357" x="25.632" xlink:href="#m"/><path d="M58.395 99.387V12.926" fill="none" stroke="#000" stroke-width=".399" stroke-miterlimit="10" stroke-dasharray="2.98883,2.98883"/><use height="100%" width="100%" y="104.2" x="55.003" xlink:href="#n"/><use height="100%" width="100%" y="104.2" x="58.393" xlink:href="#o"/><path d="M37.133 55.45V12.925" fill="none" stroke="#000" stroke-width=".399" stroke-miterlimit="10" stroke-dasharray="2.98883,2.98883"/><use height="100%" width="100%" y="104.2" x="33.743" xlink:href="#p"/><use height="100%" width="100%" y="104.2" x="37.133" xlink:href="#o"/><path d="M14.457 55.45h43.938" fill="none" stroke="#000" stroke-width=".399" stroke-miterlimit="10" stroke-dasharray="2.98883,2.98883"/><use height="100%" width="100%" y="57.053" x="6.072" xlink:href="#q"/><use height="100%" width="100%" y="57.053" x="9.462" xlink:href="#o"/></svg>